<?xml version="1.0" encoding="utf-8"?>
<!-- Generator: Adobe Illustrator 25.2.1, SVG Export Plug-In . SVG Version: 6.00 Build 0)  -->
<svg version="1.1" id="Layer_1" xmlns="http://www.w3.org/2000/svg" xmlns:xlink="http://www.w3.org/1999/xlink" x="0px" y="0px"
	 viewBox="0 0 100 100" style="enable-background:new 0 0 100 100;" xml:space="preserve">
<style type="text/css">
	.st0{fill:#EFEFEF;}
	.st1{fill:#A4AFC1;}
	.st2{fill:#0038ba;}
	.st3{fill:none;stroke:#282828;stroke-width:4.5;stroke-linecap:round;stroke-linejoin:round;stroke-miterlimit:10;}
	.st4{fill:#282828;}
</style>
<g>
	<g id="BG">
		<g>
			<path class="st0" d="M19.9,89.8c19.9,0,33.5,10.3,43.1,10.3s29.7-5.5,29.7-49.6S65.6,0,55.1,0C5.7,0-15.3,89.8,19.9,89.8
				L19.9,89.8z"/>
		</g>
	</g>
	<g id="effect">
		<g>
			<path class="st1" d="M12.1,12.1c-2.4,0-4.3-1.9-4.3-4.3s1.9-4.3,4.3-4.3s4.3,1.9,4.3,4.3S14.4,12.1,12.1,12.1z M12.1,6.4
				c-0.8,0-1.4,0.6-1.4,1.4s0.6,1.4,1.4,1.4s1.4-0.6,1.4-1.4S12.9,6.4,12.1,6.4z"/>
		</g>
		<g>
			<g>
				<path class="st1" d="M85.4,4.4h2.9v5.7h-2.9V4.4z"/>
			</g>
			<g>
				<path class="st1" d="M85.4,21h2.9v5.7h-2.9V21z"/>
			</g>
			<g>
				<path class="st1" d="M75.4,13.8h5.7v2.9h-5.7V13.8z"/>
			</g>
			<g>
				<path class="st1" d="M91.9,13.8h5.7v2.9h-5.7V13.8z"/>
			</g>
		</g>
	</g>
</g>
<g>
	<path class="st2" d="M80.9,73.6V60c0-3.2-2.6-5.7-5.7-5.7H68c-3.2,0-5.7,2.6-5.7,5.7v13.6H80.9z"/>
</g>
<g>
	<circle class="st2" cx="71.8" cy="45" r="6.1"/>
</g>
<g>
	<polyline class="st3" points="72.6,37.2 72.6,19.2 19.4,19.2 19.4,61.7 59.5,61.7 	"/>
	<path class="st3" d="M55.1,78.7c2.9,0,5.6-1.6,6.9-4.3v-17l-6.4,12.8H45c-1.1,0-2.2,0.4-3,1.2c-0.8,0.8-1.2,1.9-1.2,3c0,0,0,0,0,0
		c0,1.1,0.4,2.2,1.2,3c0.8,0.8,1.9,1.2,3,1.2C48,78.7,52,78.7,55.1,78.7z"/>
	<polygon class="st3" points="62,57.4 62,83 83.2,83 83.2,57.4 72.6,52.1 	"/>
	<line class="st3" x1="41.5" y1="71.9" x2="32.2" y2="53.2"/>
	<circle class="st3" cx="72.6" cy="44.7" r="7.4"/>
	<line class="st3" x1="27.9" y1="27.7" x2="45" y2="27.7"/>
	<line class="st3" x1="27.9" y1="36.2" x2="57.9" y2="36.2"/>
	<line class="st3" x1="27.9" y1="44.7" x2="51.3" y2="44.7"/>
</g>
<g>
	<path class="st4" d="M5.9,81.7h91.9V86H5.9V81.7z"/>
</g>
</svg>
