<?xml version="1.0" encoding="utf-8"?>
<!-- Generator: Adobe Illustrator 25.2.1, SVG Export Plug-In . SVG Version: 6.00 Build 0)  -->
<svg version="1.1" id="Layer_1" xmlns="http://www.w3.org/2000/svg" xmlns:xlink="http://www.w3.org/1999/xlink" x="0px" y="0px"
	 viewBox="0 0 100 100" style="enable-background:new 0 0 100 100;" xml:space="preserve">
<style type="text/css">
	.st0{fill:#EFEFEF;}
	.st1{fill:#A4AFC1;}
	.st2{fill-rule:evenodd;clip-rule:evenodd;fill:#0038ba;}
	.st3{fill:#0038ba;}
	.st4{fill:#282828;}
	.st5{fill-rule:evenodd;clip-rule:evenodd;}
</style>
<g>
	<path class="st0" d="M22.9,10.3C42.7,10.3,56.3,0,65.9,0s29.6,5.5,29.6,49.4S68.5,99.9,58,99.9C8.8,99.9-12.3,10.3,22.9,10.3
		L22.9,10.3z"/>
	<g>
		<path class="st1" d="M16.2,10.1L20.3,6l2,2l-4.1,4.1L16.2,10.1z"/>
		<path class="st1" d="M4.5,21.8l4.1-4.1l2,2l-4.1,4.1L4.5,21.8z"/>
		<path class="st1" d="M4.5,7.6l2-2l4.1,4.1l-2,2L4.5,7.6z"/>
	</g>
</g>
<g>
	<circle class="st2" cx="50.2" cy="28.6" r="7.9"/>
	<path class="st3" d="M35.8,73.6v8.6L21.4,67.9H30C33.2,67.9,35.8,70.4,35.8,73.6z"/>
	<path class="st4" d="M37.9,82.2h-4.3v-8.6c0-2-1.6-3.6-3.6-3.6h-8.6v-4.3H30c4.4,0,7.9,3.5,7.9,7.9C37.9,73.6,37.9,82.2,37.9,82.2z
		"/>
	<path class="st5" d="M49.9,22c-3.7,0-6.7,3-6.7,6.7c0,3.7,3,6.7,6.7,6.7s6.7-3,6.7-6.7S53.6,22,49.9,22z M40.1,28.7
		c0-5.4,4.4-9.8,9.8-9.8c5.4,0,9.8,4.4,9.8,9.8s-4.4,9.8-9.8,9.8C44.4,38.5,40.1,34.1,40.1,28.7z M72,22.1c1,0,1.8,0.8,1.8,1.8v5.1
		h5.1c1,0,1.8,0.8,1.8,1.8s-0.8,1.8-1.8,1.8h-5.1v5.1c0,1-0.8,1.8-1.8,1.8s-1.8-0.8-1.8-1.8v-5.1h-5.1c-1,0-1.8-0.8-1.8-1.8
		s0.8-1.8,1.8-1.8h5.1v-5.1C70.3,22.8,71.1,22.1,72,22.1z M31.8,53.4c0-5.4,4.4-9.8,9.8-9.8h16.5c5.4,0,9.8,4.4,9.8,9.8v4.1
		c0,0.9-0.7,1.5-1.5,1.5h-33c-0.9,0-1.5-0.7-1.5-1.5V53.4z M41.6,46.7c-3.7,0-6.7,3-6.7,6.7V56h29.9v-2.6c0-3.7-3-6.7-6.7-6.7H41.6z
		"/>
	<path class="st4" d="M66.7,71.9v4.6c0,2-1.6,3.6-3.6,3.6H36.7L23.6,67.1V23.4c0-2,1.6-3.6,3.6-3.6h5.2v-4.3h-5.2
		c-4.4,0-7.9,3.5-7.9,7.9v44.5c0,0.5,0.2,1.1,0.6,1.5l14.4,14.4c0.4,0.4,0.9,0.6,1.5,0.6H63c4.4,0,7.9-3.6,8-7.9v-4.6H66.7z"/>
</g>
</svg>
