<?xml version="1.0" encoding="utf-8"?>
<!-- Generator: Adobe Illustrator 25.2.1, SVG Export Plug-In . SVG Version: 6.00 Build 0)  -->
<svg version="1.1" id="Layer_1" xmlns="http://www.w3.org/2000/svg" xmlns:xlink="http://www.w3.org/1999/xlink" x="0px" y="0px"
	 viewBox="0 0 100 100" style="enable-background:new 0 0 100 100;" xml:space="preserve">
<style type="text/css">
	.st0{fill:#EFEFEF;}
	.st1{opacity:0.5;fill:#A4AFC1;enable-background:new    ;}
	.st2{fill:#F3F3F1;}
	.st3{fill:#0038ba;}
	.st4{fill:#282828;}
</style>
<g>
	<path class="st0" d="M89.7,78c0-19.8,10.3-33.5,10.3-43S94.5,5.3,50.5,5.3S0,32.4,0,42.9C0,92.2,89.7,113.2,89.7,78z"/>
	<path class="st1" d="M11.2,13.1c-2.4,0-4.3-1.9-4.3-4.3s1.9-4.3,4.3-4.3s4.3,1.9,4.3,4.3S13.6,13.1,11.2,13.1z M11.2,7.4
		c-0.8,0-1.4,0.6-1.4,1.4s0.6,1.4,1.4,1.4c0.8,0,1.4-0.6,1.4-1.4C12.7,8,12,7.4,11.2,7.4z"/>
	<path class="st2" d="M73.7,23.9V77c0,3.2-2.6,5.7-5.7,5.7H40.7v-8.6c0-3.2-2.6-5.7-5.7-5.7h-8.6V23.9c0-3.2,2.6-5.7,5.7-5.7H68
		C71.1,18.1,73.7,20.7,73.7,23.9z"/>
	<path class="st3" d="M40.7,74.1v8.6L26.3,68.4h8.6C38.1,68.4,40.7,70.9,40.7,74.1z"/>
	<path class="st3" d="M62.2,36.8H37.8c-1.6,0-2.9-1.3-2.9-2.9v-4.3c0-1.6,1.3-2.9,2.9-2.9h24.4c1.6,0,2.9,1.3,2.9,2.9v4.3
		C65.1,35.5,63.8,36.8,62.2,36.8z"/>
	<path class="st4" d="M42.8,82.7h-4.3v-8.6c0-2-1.6-3.6-3.6-3.6h-8.6v-4.3h8.6c4.4,0,7.9,3.5,7.9,7.9C42.8,74.1,42.8,82.7,42.8,82.7
		z"/>
	<path class="st4" d="M67.9,84.9H40.7c-0.6,0-1.1-0.2-1.5-0.6L24.8,69.9c-0.4-0.4-0.6-1-0.6-1.5V23.9c0-4.4,3.5-7.9,7.9-7.9H68
		c4.4,0,7.9,3.5,7.9,7.9V77C75.8,81.3,72.3,84.9,67.9,84.9z M41.6,80.6H68c2,0,3.6-1.6,3.6-3.6V23.9c0-2-1.6-3.6-3.6-3.6H32.1
		c-2,0-3.6,1.6-3.6,3.6v43.6L41.6,80.6z"/>
	<path class="st4" d="M62.2,38.9H37.8c-2.8,0-5-2.3-5-5v-4.3c0-2.8,2.3-5,5-5h24.4c2.8,0,5,2.3,5,5v4.3C67.2,36.7,65,38.9,62.2,38.9
		z M37.8,28.9c-0.4,0-0.7,0.3-0.7,0.7v4.3c0,0.4,0.3,0.7,0.7,0.7h24.4c0.4,0,0.7-0.3,0.7-0.7v-4.3c0-0.4-0.3-0.7-0.7-0.7
		C62.2,28.9,37.8,28.9,37.8,28.9z"/>
	<path class="st4" d="M35.6,44.7h28.7V49H35.6V44.7z"/>
	<path class="st4" d="M35.6,54.7h28.7V59H35.6V54.7z"/>
</g>
</svg>
