<?xml version="1.0" encoding="utf-8"?>
<!-- Generator: Adobe Illustrator 25.2.1, SVG Export Plug-In . SVG Version: 6.00 Build 0)  -->
<svg version="1.1" id="Layer_1" xmlns="http://www.w3.org/2000/svg" xmlns:xlink="http://www.w3.org/1999/xlink" x="0px" y="0px"
	 viewBox="0 0 100 100" style="enable-background:new 0 0 100 100;" xml:space="preserve">
<style type="text/css">
	.st0{fill:#EFEFEF;}
	.st1{fill:#A4AFC1;}
	.st2{fill:#0038ba;}
	.st3{fill:#282828;}
</style>
<g id="bg">
	<g>
		<path class="st0" d="M33.9,98.5c17.7-8,34.1-4.4,42.6-8.3s24.2-16.9,6.4-56.2S38.3-0.1,28.9,4.2C-15,24.1,2.5,112.7,33.9,98.5
			L33.9,98.5z"/>
	</g>
</g>
<g id="effect">
	<g>
		<path class="st1" d="M89.7,65.4c-2.3,0-4.2-1.9-4.2-4.2s1.9-4.2,4.2-4.2c2.3,0,4.2,1.9,4.2,4.2S92,65.4,89.7,65.4z M89.7,59.8
			c-0.8,0-1.4,0.6-1.4,1.4c0,0.8,0.6,1.4,1.4,1.4s1.4-0.6,1.4-1.4C91.1,60.4,90.4,59.8,89.7,59.8z"/>
	</g>
	<g>
		<g>
			<path class="st1" d="M85.5,0h2.8v5.6h-2.8V0z"/>
		</g>
		<g>
			<path class="st1" d="M85.5,16.2h2.8v5.6h-2.8V16.2z"/>
		</g>
		<g>
			<path class="st1" d="M75.6,9.1h5.6V12h-5.6V9.1z"/>
		</g>
		<g>
			<path class="st1" d="M91.8,9.1h5.6V12h-5.6V9.1z"/>
		</g>
	</g>
</g>
<polygon class="st2" points="40.1,30 42.8,25.5 46,25.6 65.8,55 65.1,59.1 62.1,60.7 "/>
<polygon class="st2" points="34.5,68.9 39.8,66 48.2,79 45.3,83.1 "/>
<g>
	<path class="st3" d="M41.6,24.6c-2.2,1.4-3.2,4.1-2.5,6.5L17.5,51.9c-0.7,0.6-0.8,1.6-0.3,2.4l1.2,1.9l-4.9,3.1
		c-0.9,0.6-1.2,1.8-0.6,2.7l5.4,8.6c0.6,0.9,1.8,1.2,2.7,0.6l4.9-3.1l1.4,2.3c0.5,0.8,1.4,1.1,2.3,0.8l2.9-1.1l7.4,11.8
		c1.4,2.2,4,3.1,6.4,2.3c0.4-0.1,0.8-0.3,1.2-0.5c1-0.6,1.8-1.6,2.3-2.8c0.6-1.6,0.4-3.3-0.5-4.8l-1.3-2.1l0.3-0.2
		c3.7-2.3,5.3-6.8,4-10.8l5.6-2.1c1.9,1.7,4.7,2,6.9,0.6c2.7-1.7,3.5-5.3,1.8-8l-16.9-27C47.9,23.7,44.3,22.9,41.6,24.6z M23.7,64.8
		l-3.3,2l-3.4-5.4l3.3-2L23.7,64.8z M45.8,78.1c0.3,0.4,0.3,0.9,0.2,1.4c-0.2,0.5-0.5,0.8-1,1c-0.7,0.2-1.5,0-1.9-0.7l-6.9-11.1
		l3.1-1.2L45.8,78.1L45.8,78.1z M46.1,70.4l-0.3,0.2L43,66.2l5.5-2C49.1,66.5,48.2,69.1,46.1,70.4z M55.4,57.5L29.7,67l-8.4-13.4
		l19.8-19L55.4,57.5z M63.2,55.5c0.6,0.9,0.3,2.1-0.6,2.7c-0.9,0.6-2.1,0.3-2.7-0.6L43,30.5c-0.6-0.9-0.3-2.1,0.6-2.7
		c0.9-0.6,2.1-0.3,2.7,0.6L63.2,55.5z"/>
	<path class="st3" d="M57.4,24.9c0.4-0.2,0.7-0.6,0.8-1l1.6-4.8c0.3-1-0.2-2.1-1.2-2.4c-1-0.3-2.1,0.2-2.4,1.2l-1.6,4.8
		c-0.3,1,0.2,2.1,1.2,2.4C56.4,25.3,57,25.2,57.4,24.9z"/>
	<path class="st3" d="M77.3,47l-5-0.7c-1.1-0.1-2,0.6-2.2,1.7c-0.1,1.1,0.6,2,1.7,2.2l5,0.7c0.5,0.1,0.9,0,1.3-0.3
		c0.5-0.3,0.8-0.8,0.9-1.4C79.1,48.1,78.3,47.1,77.3,47z"/>
	<path class="st3" d="M68.7,30.6L61.8,35c-0.9,0.6-1.2,1.8-0.6,2.7c0.6,0.9,1.8,1.2,2.7,0.6l6.9-4.3c0.9-0.6,1.2-1.8,0.6-2.7
		C70.8,30.4,69.6,30.1,68.7,30.6z"/>
</g>
</svg>
