<?xml version="1.0" encoding="utf-8"?>
<!-- Generator: Adobe Illustrator 25.2.1, SVG Export Plug-In . SVG Version: 6.00 Build 0)  -->
<svg version="1.1" id="Layer_1" xmlns="http://www.w3.org/2000/svg" xmlns:xlink="http://www.w3.org/1999/xlink" x="0px" y="0px"
	 viewBox="0 0 100 100" style="enable-background:new 0 0 100 100;" xml:space="preserve">
<style type="text/css">
	.st0{fill:#EFEFEF;}
	.st1{fill:#F3F3F1;}
	.st2{fill:#A1C95C;}
	.st3{fill:#A4AFC1;}
	.st4{fill:#282828;}
</style>
<path class="st0" d="M21.9,14.6c-5.1,19-18.5,29.4-21,38.6S-1.5,83,40.6,94.4s55.3-12.8,58-22.9C111.4,24.3,31-19.1,21.9,14.6
	L21.9,14.6z"/>
<path class="st1" d="M76.3,82H23.7c-3.1,0-5.7-2.5-5.7-5.7V23.7c0-3.1,2.5-5.7,5.7-5.7h52.7c3.1,0,5.7,2.5,5.7,5.7v52.7
	C82,79.5,79.5,82,76.3,82z"/>
<circle class="st2" cx="50" cy="50" r="23.5"/>
<g>
	<path class="st3" d="M7.3,9l2-2l4,4l-2,2L7.3,9z"/>
	<path class="st3" d="M6.8,22.6l4-4l2,2l-4,4L6.8,22.6z"/>
	<path class="st3" d="M18.4,11.1l4-4l2,2l-4,4L18.4,11.1z"/>
	<path class="st3" d="M84.9,16.6c-2.4,0-4.3-1.9-4.3-4.3S82.5,8,84.9,8s4.3,1.9,4.3,4.3S87.2,16.6,84.9,16.6z M84.9,10.9
		c-0.8,0-1.4,0.6-1.4,1.4s0.6,1.4,1.4,1.4s1.4-0.6,1.4-1.4S85.7,10.9,84.9,10.9z"/>
</g>
<path class="st4" d="M76.3,84.2H23.7c-4.3,0-7.8-3.5-7.8-7.8V23.7c0-4.3,3.5-7.8,7.8-7.8h52.7c4.3,0,7.8,3.5,7.8,7.8v52.7
	C84.2,80.7,80.7,84.2,76.3,84.2z M23.7,20.1c-2,0-3.6,1.6-3.6,3.6v52.7c0,2,1.6,3.6,3.6,3.6h52.7c2,0,3.6-1.6,3.6-3.6V23.7
	c0-2-1.6-3.6-3.6-3.6H23.7z"/>
<path class="st4" d="M4.5,79.9h91.1v4.3H4.5V79.9z"/>
<g>
	<rect x="39.4" y="42" class="st4" width="5.3" height="4.8"/>
	<path class="st4" d="M50.1,51.7c-5.2,0-9.9,3.2-12,8.1l4.3,1.9c1.3-3.1,4.3-5.2,7.6-5.2c3.3,0,6.2,2,7.6,5l4.3-2
		C59.8,54.8,55.2,51.7,50.1,51.7z"/>
	<path class="st4" d="M50,25.7c-13,0-23.6,10.8-23.6,24.1S37,74,50,74s23.6-10.8,23.6-24.1S63,25.7,50,25.7z M50,69.2
		c-10.4,0-18.9-8.7-18.9-19.3S39.6,30.5,50,30.5c10.4,0,18.9,8.7,18.9,19.3S60.4,69.2,50,69.2z"/>
	<rect x="55.3" y="42" class="st4" width="5.3" height="4.8"/>
</g>
</svg>
