<?xml version="1.0" encoding="utf-8"?>
<!-- Generator: Adobe Illustrator 25.2.1, SVG Export Plug-In . SVG Version: 6.00 Build 0)  -->
<svg version="1.1" id="Layer_1" xmlns="http://www.w3.org/2000/svg" xmlns:xlink="http://www.w3.org/1999/xlink" x="0px" y="0px"
	 viewBox="0 0 100 100" style="enable-background:new 0 0 100 100;" xml:space="preserve">
<style type="text/css">
	.st0{fill:#EFEFEF;}
	.st1{fill:#A4AFC1;}
	.st2{fill:#0038ba;}
	.st3{fill:#282828;stroke:#282828;stroke-width:1.5;stroke-miterlimit:10;}
</style>
<path class="st0" d="M10.3,77.6C10.3,57.8,0,44.1,0,34.6S5.5,4.9,49.5,4.9s50.5,27,50.5,37.6C100,91.7,10.3,112.8,10.3,77.6z"/>
<g>
	<path class="st1" d="M17.2,9.7l4.1-4.1l2,2l-4.1,4.1L17.2,9.7z"/>
	<path class="st1" d="M5.6,21.4l4.1-4.1l2,2l-4.1,4.1L5.6,21.4z"/>
	<path class="st1" d="M5.6,7.2l2-2l4.1,4l-2,2L5.6,7.2z"/>
	<path class="st1" d="M13.1,96.3c-2.4,0-4.3-1.9-4.3-4.3c0-2.4,1.9-4.3,4.3-4.3s4.3,1.9,4.3,4.3C17.4,94.4,15.4,96.3,13.1,96.3z
		 M13.1,90.6c-0.8,0-1.4,0.6-1.4,1.4s0.6,1.4,1.4,1.4s1.4-0.6,1.4-1.4S13.8,90.6,13.1,90.6z"/>
</g>
<g>
	<ellipse class="st2" cx="50.2" cy="50.3" rx="21.4" ry="21.6"/>
	<path class="st3" d="M76.4,27.1c-0.3-0.3-0.8-0.4-1.3-0.2c-0.4,0.2-0.7,0.6-0.7,1.1v2.3h-7v2.3h8.1c0.6,0,1.2-0.5,1.2-1.2v-0.7
		l5.3,5.3l-5.3,5.3v-0.7c0-0.6-0.5-1.2-1.2-1.2h-4.8C65.4,28.9,53,24,41.9,28.2v-2.7h2.3c0.5,0,0.9-0.3,1.1-0.7
		c0.2-0.4,0.1-0.9-0.2-1.3l-8.1-8.1c-0.5-0.5-1.2-0.5-1.6,0c0,0,0,0,0,0l-8.1,8.1c-0.3,0.3-0.4,0.8-0.2,1.3c0.2,0.4,0.6,0.7,1.1,0.7
		h2.3v7h2.3v-8.1c0-0.6-0.5-1.2-1.2-1.2h-0.7l5.3-5.3l5.3,5.3h-0.7c-0.6,0-1.2,0.5-1.2,1.2v4.8c-1.4,0.7-2.7,1.5-3.9,2.5l1.4,1.8
		c9.1-7.2,22.3-5.6,29.5,3.5s5.6,22.3-3.5,29.5C54,73.7,40.8,72.1,33.6,63c-5.6-7.1-6-17.1-1-24.7L30.7,37
		c-4.2,6.2-5.1,14.1-2.5,21.1h-2.7v-2.3c0-0.5-0.3-0.9-0.7-1.1c-0.4-0.2-0.9-0.1-1.3,0.2l-8.1,8.1c-0.5,0.5-0.5,1.2,0,1.6
		c0,0,0,0,0,0l8.1,8.1c0.2,0.2,0.5,0.3,0.8,0.3c0.2,0,0.3,0,0.4-0.1c0.4-0.2,0.7-0.6,0.7-1.1v-2.3h7v-2.3h-8.1
		c-0.6,0-1.2,0.5-1.2,1.2v0.7L17.9,64l5.3-5.3v0.7c0,0.6,0.5,1.2,1.2,1.2h4.8c4,7.8,12,12.8,20.8,12.8c2.8,0,5.5-0.5,8.1-1.5v2.7
		h-2.3c-0.5,0-0.9,0.3-1.1,0.7c-0.2,0.4-0.1,0.9,0.2,1.3l8.1,8.1c0.5,0.5,1.2,0.5,1.6,0c0,0,0,0,0,0l8.1-8.1
		c0.3-0.3,0.4-0.8,0.2-1.3c-0.2-0.4-0.6-0.7-1.1-0.7h-2.3v-7h-2.3v8.1c0,0.6,0.5,1.2,1.2,1.2h0.7L64,82.1l-5.3-5.3h0.7
		c0.6,0,1.2-0.5,1.2-1.2v-4.8c7.8-4,12.8-12,12.8-20.8c0-2.8-0.5-5.5-1.5-8.1h2.7v2.3c0,0.5,0.3,0.9,0.7,1.1
		c0.1,0.1,0.3,0.1,0.4,0.1c0.3,0,0.6-0.1,0.8-0.3l8.1-8.1c0.5-0.5,0.5-1.2,0-1.6c0,0,0,0,0,0L76.4,27.1z"/>
	<path class="st3" d="M48.9,42H58v-3H52v-3h-3v3c-3.3,0-6.1,2.7-6.1,6.1s2.7,6.1,6.1,6.1h3c1.7,0,3,1.4,3,3c0,1.7-1.4,3-3,3h-9.1v3
		h6.1v3h3v-3c3.3,0,6.1-2.7,6.1-6.1c0-3.3-2.7-6.1-6.1-6.1h-3c-1.7,0-3-1.4-3-3S47.3,42,48.9,42z"/>
</g>
</svg>
