<?xml version="1.0" encoding="utf-8"?>
<!-- Generator: Adobe Illustrator 25.2.1, SVG Export Plug-In . SVG Version: 6.00 Build 0)  -->
<svg version="1.1" id="Layer_1" xmlns="http://www.w3.org/2000/svg" xmlns:xlink="http://www.w3.org/1999/xlink" x="0px" y="0px"
	 viewBox="0 0 100 100" style="enable-background:new 0 0 100 100;" xml:space="preserve">
<style type="text/css">
	.st0{fill:#EFEFEF;}
	.st1{opacity:0.5;fill:#A4AFC1;}
	.st2{fill:#F3F3F1;}
	.st3{fill:#A1C95C;}
	.st4{fill:#282828;}
	.st5{fill:#A4AFC1;}
</style>
<g>
	<path class="st0" d="M77.2,11.8c-19.5,0-32.9-10.1-42.4-10.1S5.6,7.1,5.6,50.4s26.6,49.6,37,49.6C91.1,100,111.8,11.8,77.2,11.8z"
		/>
	<path class="st1" d="M91.4,92.7c-2.3,0-4.2-1.9-4.2-4.2c0-2.3,1.9-4.2,4.2-4.2c2.3,0,4.2,1.9,4.2,4.2
		C95.6,90.8,93.7,92.7,91.4,92.7z M91.4,87.1c-0.8,0-1.4,0.6-1.4,1.4s0.6,1.4,1.4,1.4s1.4-0.6,1.4-1.4S92.1,87.1,91.4,87.1z"/>
</g>
<g>
	<path class="st2" d="M64.8,28.1v53.1c0,3.2-2.6,5.7-5.7,5.7H31.8v-8.6c0-3.2-2.6-5.7-5.7-5.7h-8.6V28.1c0-3.2,2.6-5.7,5.7-5.7h35.9
		C62.2,22.3,64.8,24.9,64.8,28.1z"/>
	<path class="st3" d="M31.8,78.3v8.6L17.4,72.6H26C29.2,72.6,31.8,75.1,31.8,78.3z"/>
	<path class="st4" d="M33.9,86.9h-4.3v-8.6c0-2-1.6-3.6-3.6-3.6h-8.6v-4.3H26c4.4,0,7.9,3.5,7.9,7.9C33.9,78.3,33.9,86.9,33.9,86.9z
		"/>
	<path class="st4" d="M60.4,43.8h24.3v4.3H60.4V43.8z"/>
	<path class="st4" d="M60.4,53.4h24.3v4.3H60.4V53.4z"/>
	<path class="st4" d="M60.4,62.2h24.3v4.3H60.4V62.2z"/>
	<path d="M45.2,60.9c-0.1,0.7-0.8,1.4-1.5,1.5c-0.4,0.1-1,0.1-1.8,0.1c-0.8,0-1.4-0.1-1.8-0.1c-0.7-0.1-1.4-0.8-1.5-1.5
		c-0.1-0.4-0.1-1-0.1-1.8c0-0.8,0.1-1.4,0.1-1.8c0.1-0.7,0.8-1.4,1.5-1.5c0.4-0.1,1-0.1,1.8-0.1c0.8,0,1.4,0.1,1.8,0.1
		c0.7,0.1,1.4,0.8,1.5,1.5c0.1,0.4,0.1,1,0.1,1.8C45.3,59.9,45.3,60.4,45.2,60.9z"/>
	<path d="M41.7,52c-1.1,0-2.1-0.8-2.2-2c0-0.2-0.2-1.6,0.3-3.2c0.6-2.4,2.1-4.2,4.2-5.3c3.9-1.9,4.2-4.1,4.2-4.7
		c0-0.5-0.2-1.5-0.9-2.3c-0.9-1.1-2.5-1.7-4.7-1.7c-2.2,0-3.7,0.8-4.8,2.3c-0.9,1.2-1.1,2.3-1.1,2.3c-0.3,1.2-1.4,2-2.6,1.7
		c-1.2-0.3-2-1.4-1.7-2.6c0-0.2,0.5-2.1,1.9-4.1c1.4-1.9,4-4.1,8.4-4.1c8,0,10.1,5.6,10.1,8.5c0,1.6-0.6,5.8-6.7,8.7
		c-2.3,1.1-2,4-2,4c0.1,1.2-0.7,2.3-2,2.5C41.9,52,41.8,52,41.7,52L41.7,52z"/>
	<path class="st4" d="M62.7,74.9v6.3c0,2-1.6,3.6-3.6,3.6H32.7L19.6,71.7V28.1c0-2,1.6-3.6,3.6-3.6h35.9c2,0,3.6,1.6,3.6,3.6v5.6H67
		v-5.6c0-4.4-3.5-7.9-7.9-7.9H23.2c-4.4,0-7.9,3.5-7.9,7.9v44.5c0,0.5,0.2,1.1,0.6,1.5l14.4,14.4c0.4,0.4,0.9,0.6,1.5,0.6H59
		c4.4,0,7.9-3.6,8-7.9v-6.3H62.7z"/>
</g>
<path class="st5" d="M85.4,4.7L88,5.8L85.8,11l-2.6-1.1L85.4,4.7z"/>
<path class="st5" d="M73,8.8l5.2,2.2l-1.1,2.6l-5.2-2.2L73,8.8z"/>
<path class="st5" d="M87.9,15l5.2,2.2L92,19.7l-5.2-2.2L87.9,15z"/>
</svg>
